{"title":"M*A*S*H - MASH *1970*[BluRay][1080p][ENG, POL]","uid":5955964,"size":7924848867,"categoryP":"video","categoryS":"hd___movies","magnet":"?xt=urn:btih:537178fccbc50205d87fd75dc703bf78ca4ab965&amp;dn=M%2AA%2AS%2AH+-+MASH+%2A1970%2A%5BBluRay%5D%5B1080p%5D%5BENG%2C+POL%5D&amp;tr=udp%3A%2F%2Ftracker.openbittorrent.com%3A80&amp;tr=udp%3A%2F%2Fopen.demonii.com%3A1337&amp;tr=udp%3A%2F%2Ftracker.coppersurfer.tk%3A6969&amp;tr=udp%3A%2F%2Fexodus.desync.com%3A6969","seeders":3,"leechers":0,"uploader":"albedo040","files":1,"time":1289722682,"description":"M*A*S*H - MASH *1970*[BluRay][1080p][ENG, POL]\n\nGeneral information:\nCountry: USA\nRelease: 25 January 1970\nGenre: Comedy, War, Drama \nDirector: Robert Altman\nScreenplay: Ring Lardner Jr.\nOriginal Music: Johnny Mandel \nCinematography by: Harold E. Stine \nDuration: 1h 55mn\nLanguage: English, Polish\nSubtitles: English, Polish\nRating: 7.4/10 - 5317 votes \n\nCast:\nDonald Sutherland  ...  Hawkeye Pierce  \nElliott Gould  ...  Trapper John McIntyre  \nTom Skerritt  ...  Duke Forrest  \nSally Kellerman  ...  'Hot Lips' O'Houlihan  \nRobert Duvall  ...  Maj. Frank Burns  \nRoger Bowen  ...  Col. Henry Blake  \nRene Auberjonois  ...  Father John Mulcahy  \nDavid Arkin  ...  Sgt. Major Vollmer  \nJo Ann Pflug  ...  Lt. 'Dish'  \nGary Burghoff  ...  Corporal 'Radar' O'Reilly  \nFred Williamson  ...  Dr. Oliver 'Spearchucker' Jones  \nMichael Murphy  ...  'Me Lai' Marston  \nIndus Arthur  ...  Lt. Leslie  \nKen Prymus  ...  PFC. Seidman  \nBobby Troup  ...  Sgt. Gorman  \n\nPlot:\nThe staff of a Korean War field hospital use humor and hijinks to keep their sanity in the face of the horror of war. \n\nSpecifications:\nGeneral\nFormat                           : Matroska\nOverall bit rate                 : 9 116 Kbps\n\nVideo\nFormat                           : AVC\nFormat/Info                      : Advanced Video Codec\nFormat profile                   : &lt;a class=&quot;__cf_email__&quot; href=&quot;/cdn-cgi/l/email-protection&quot; data-cfemail=&quot;dd95b4bab59d91e9f3ed&quot;&gt;[email&amp;#160;protected]&lt;/a&gt;&lt;script cf-hash='f9e31' type=&quot;text/javascript&quot;&gt;\n/* &lt;![CDATA[ */!function(){try{var t=&quot;currentScript&quot;in document?document.currentScript:function(){for(var t=document.getElementsByTagName(&quot;script&quot;),e=t.length;e--;)if(t[e].getAttribute(&quot;cf-hash&quot;))return t[e]}();if(t&amp;&amp;t.previousSibling){var e,r,n,i,c=t.previousSibling,a=c.getAttribute(&quot;data-cfemail&quot;);if(a){for(e=&quot;&quot;,r=parseInt(a.substr(0,2),16),n=2;a.length-n;n+=2)i=parseInt(a.substr(n,2),16)^r,e+=String.fromCharCode(i);e=document.createTextNode(e),c.parentNode.replaceChild(e,c)}}}catch(u){}}();/* ]]&gt; */&lt;/script&gt;\nFormat settings, CABAC           : Yes\nFormat settings, ReFrames        : 3 frames\nFormat settings, GOP             : M=4, N=16\nMuxing mode                      : Container profile=&lt;a class=&quot;__cf_email__&quot; href=&quot;/cdn-cgi/l/email-protection&quot; data-cfemail=&quot;75201b1e1b1a021b35415b45&quot;&gt;[email&amp;#160;protected]&lt;/a&gt;&lt;script cf-hash='f9e31' type=&quot;text/javascript&quot;&gt;\n/* &lt;![CDATA[ */!function(){try{var t=&quot;currentScript&quot;in document?document.currentScript:function(){for(var t=document.getElementsByTagName(&quot;script&quot;),e=t.length;e--;)if(t[e].getAttribute(&quot;cf-hash&quot;))return t[e]}();if(t&amp;&amp;t.previousSibling){var e,r,n,i,c=t.previousSibling,a=c.getAttribute(&quot;data-cfemail&quot;);if(a){for(e=&quot;&quot;,r=parseInt(a.substr(0,2),16),n=2;a.length-n;n+=2)i=parseInt(a.substr(n,2),16)^r,e+=String.fromCharCode(i);e=document.createTextNode(e),c.parentNode.replaceChild(e,c)}}}catch(u){}}();/* ]]&gt; */&lt;/script&gt;\nCodec ID                         : V_MPEG4/ISO/AVC\nBit rate                         : 8 251 Kbps\nWidth                            : 1 920 pixels\nHeight                           : 1 080 pixels\nDisplay aspect ratio             : 16:9\nFrame rate                       : 23.976 fps\n\nAudio 1\nFormat                           : AC-3\nFormat/Info                      : Audio Coding 3\nMode extension                   : CM (complete main)\nCodec ID                         : A_AC3\nBit rate mode                    : Constant\nBit rate                         : 640 Kbps\nChannel(s)                       : 6 channels\nChannel positions                : Front: L C R, Side: L R, LFE\nSampling rate                    : 48.0 KHz\nStream size                      : 531 MiB (7%)\nTitle                            : English\n\nAudio 2\nFormat                           : AC-3\nFormat/Info                      : Audio Coding 3\nMode extension                   : CM (complete main)\nCodec ID                         : A_AC3\nBit rate mode                    : Constant\nBit rate                         : 224 Kbps\nChannel(s)                       : 2 channels\nChannel positions                : Front: L R\nSampling rate                    : 48.0 KHz\nStream size                      : 186 MiB (2%)\nTitle                            : Polish\nLanguage                         : Polish\n\nText 1\nFormat                           : UTF-8\nCodec ID                         : S_TEXT/UTF8\nCodec ID/Info                    : UTF-8 Plain Text\nTitle                            : English\n\nText 2\nFormat                           : UTF-8\nCodec ID                         : S_TEXT/UTF8\nCodec ID/Info                    : UTF-8 Plain Text\nTitle                            : Polish\nLanguage                         : Polish\n","torrent":{"xt":"urn:btih:537178fccbc50205d87fd75dc703bf78ca4ab965","amp;dn":"M%2AA%2AS%2AH+-+MASH+%2A1970%2A%5BBluRay%5D%5B1080p%5D%5BENG%2C+POL%5D","amp;tr":["udp%3A%2F%2Ftracker.openbittorrent.com%3A80","udp%3A%2F%2Fopen.demonii.com%3A1337","udp%3A%2F%2Ftracker.coppersurfer.tk%3A6969","udp%3A%2F%2Fexodus.desync.com%3A6969"],"infoHash":"537178fccbc50205d87fd75dc703bf78ca4ab965","infoHashBuffer":{"type":"Buffer","data":[83,113,120,252,203,197,2,5,216,127,215,93,199,3,191,120,202,74,185,101]},"announce":[],"urlList":[]}}